#define iconify_width 11
#define iconify_height 11
static unsigned char iconify_bits[] = {
   0x40, 0x00, 0xa0, 0x00, 0x10, 0x01, 0x08, 0x02, 0x04, 0x01, 0x84, 0x00,
   0x44, 0x00, 0x3c, 0x00, 0x00, 0x00, 0x00, 0x00, 0x00, 0x00 };
