#define max_width 11
#define max_height 11
static unsigned char max_bits[] = {
   0x00, 0x00, 0xe0, 0x01, 0x10, 0x01, 0x08, 0x01, 0x04, 0x01, 0x82, 0x00,
   0x44, 0x00, 0x28, 0x00, 0x10, 0x00, 0x00, 0x00, 0x00, 0x00 };
