#define close_width 11
#define close_height 11
static unsigned char close_bits[] = {
   0x00, 0x00, 0x88, 0x00, 0xd8, 0x00, 0x56, 0x03, 0xac, 0x01, 0x50, 0x00,
   0xac, 0x01, 0x56, 0x03, 0xd8, 0x00, 0x88, 0x00, 0x00, 0x00 };
